<?xml version="1.0" ?><svg id="Layer_1" style="enable-background:new 0 0 85.271 114.521;" version="1.1" viewBox="0 0 85.271 114.521" xml:space="preserve" xmlns="http://www.w3.org/2000/svg" xmlns:xlink="http://www.w3.org/1999/xlink"><g><path d="M11.271,114.521H74c6.225,0,11.271-5.046,11.271-11.271V39.656L45.568,0L11.271,0   C5.046,0,0,5.046,0,11.271l0,91.979C0,109.475,5.046,114.521,11.271,114.521z" style="fill:#FDF2CE;"/><g><path d="M16.379,94.682v-8.928c0-2.517,0.683-4.368,2.049-5.552c1.364-1.184,3.146-1.776,5.344-1.776    c2.24,0,4.069,0.555,5.488,1.664c1.418,1.109,2.128,2.582,2.128,4.416c0,0.79-0.16,1.328-0.48,1.616    c-0.32,0.288-0.854,0.432-1.6,0.432c-1.366,0-2.06-0.437-2.08-1.312c-0.021-0.277-0.048-0.517-0.08-0.72    c-0.032-0.203-0.117-0.469-0.256-0.8c-0.14-0.33-0.315-0.608-0.528-0.832c-0.214-0.224-0.533-0.416-0.96-0.576    c-0.427-0.16-0.928-0.24-1.504-0.24c-2.24,0-3.36,1.227-3.36,3.68v8.928c0,2.454,1.142,3.68,3.424,3.68    c0.683,0,1.254-0.106,1.713-0.32c0.458-0.213,0.788-0.517,0.991-0.912c0.203-0.395,0.342-0.747,0.416-1.056    c0.075-0.309,0.123-0.688,0.145-1.136c0.063-0.875,0.746-1.312,2.048-1.312c0.746,0,1.285,0.144,1.616,0.432    c0.33,0.288,0.496,0.827,0.496,1.616c0,1.92-0.71,3.456-2.128,4.608c-1.419,1.152-3.26,1.728-5.521,1.728    c-2.197,0-3.974-0.592-5.328-1.776S16.379,97.2,16.379,94.682z" style="fill:#FF87AC;"/><path d="M34.652,98.138c0-0.49,0.187-0.986,0.56-1.488c0.373-0.501,0.795-0.752,1.264-0.752    c0.277,0,0.593,0.133,0.944,0.399c0.353,0.266,0.693,0.56,1.024,0.881c0.33,0.322,0.805,0.615,1.424,0.881    c0.618,0.266,1.301,0.399,2.048,0.399c1.024,0,1.877-0.235,2.56-0.704s1.024-1.163,1.024-2.08c0-0.64-0.187-1.21-0.56-1.712    c-0.374-0.501-0.864-0.917-1.473-1.248c-0.607-0.331-1.274-0.65-2-0.96c-0.726-0.309-1.456-0.656-2.191-1.04    c-0.736-0.384-1.408-0.816-2.017-1.296c-0.607-0.48-1.099-1.12-1.472-1.92c-0.374-0.8-0.56-1.712-0.56-2.736    c0-1.147,0.229-2.16,0.688-3.037c0.459-0.877,1.072-1.559,1.84-2.046c0.769-0.487,1.589-0.844,2.464-1.072    c0.875-0.227,1.803-0.341,2.784-0.341c0.555,0,1.142,0.038,1.76,0.115c0.619,0.077,1.274,0.203,1.969,0.378    c0.692,0.176,1.258,0.45,1.695,0.822s0.656,0.811,0.656,1.314c0,0.475-0.149,0.966-0.448,1.474    c-0.299,0.508-0.704,0.761-1.216,0.761c-0.191,0-0.715-0.203-1.568-0.608s-1.803-0.608-2.848-0.608    c-1.152,0-2.043,0.219-2.672,0.656c-0.63,0.438-0.944,1.04-0.944,1.808c0,0.619,0.256,1.157,0.769,1.616    c0.512,0.459,1.146,0.832,1.903,1.12c0.758,0.288,1.579,0.651,2.465,1.088c0.885,0.438,1.706,0.912,2.464,1.424    c0.757,0.512,1.392,1.253,1.903,2.224c0.513,0.971,0.769,2.107,0.769,3.408c0,2.188-0.699,3.876-2.096,5.065    c-1.397,1.189-3.238,1.783-5.521,1.783c-2.027,0-3.766-0.416-5.216-1.248C35.376,100.026,34.652,99.12,34.652,98.138z" style="fill:#FF87AC;"/><path d="M52.475,80.154c0-0.49,0.282-0.901,0.849-1.232c0.564-0.331,1.156-0.496,1.775-0.496    c0.789,0,1.259,0.278,1.408,0.832l4.896,17.344l4.864-17.344c0.149-0.554,0.619-0.832,1.408-0.832c0.597,0,1.184,0.171,1.76,0.512    s0.864,0.747,0.864,1.216c0,0.043-0.021,0.149-0.064,0.32l-6.144,20.128c-0.128,0.448-0.448,0.795-0.96,1.04    c-0.512,0.245-1.088,0.368-1.729,0.368c-1.472,0-2.367-0.469-2.688-1.408l-6.176-20.128    C52.496,80.304,52.475,80.197,52.475,80.154z" style="fill:#FF87AC;"/></g><path d="M57.048,39.656h28.223L45.568,0l0.033,28.223C45.609,34.539,50.731,39.656,57.048,39.656z" style="fill:#B8B097;"/><path d="M59.321,37.383c6.417,0.333,25.95,2.273,25.95,2.273L45.568,0c0,0,1.767,19.496,2.306,25.95   C48.4,32.245,53.013,37.057,59.321,37.383z" style="fill:#FF87AC;"/><line style="fill:#FDFFEE;" x1="85.271" x2="45.568" y1="39.656" y2="0"/></g></svg>