<?xml version="1.0" ?><svg id="Layer_1" style="enable-background:new 0 0 85.271 114.521;" version="1.1" viewBox="0 0 85.271 114.521" xml:space="preserve" xmlns="http://www.w3.org/2000/svg" xmlns:xlink="http://www.w3.org/1999/xlink"><g><path d="M11.271,114.521H74c6.225,0,11.271-5.046,11.271-11.271V39.656L45.568,0L11.271,0   C5.046,0,0,5.046,0,11.271l0,91.979C0,109.475,5.046,114.521,11.271,114.521z" style="fill:#FDF2CE;"/><g><path d="M20.22,100.667c0-0.469,0.149-0.949,0.448-1.44l9.504-17.152h-8.096    c-0.406,0-0.72-0.176-0.944-0.528c-0.224-0.352-0.336-0.784-0.336-1.296c0-0.491,0.106-0.917,0.32-1.28    c0.213-0.362,0.533-0.544,0.96-0.544h12.16c0.832,0,1.248,0.374,1.248,1.12c0,0.469-0.16,0.971-0.48,1.504l-9.472,17.12h9.216    c0.384,0,0.698,0.187,0.944,0.56c0.245,0.374,0.368,0.795,0.368,1.264c0,0.47-0.123,0.891-0.368,1.264    c-0.246,0.374-0.56,0.56-0.944,0.56h-13.28C20.636,101.818,20.22,101.435,20.22,100.667z" style="fill:#FFDF15;"/><path d="M39.995,100.506v-20.8c0-0.427,0.203-0.747,0.608-0.96s0.896-0.32,1.472-0.32    s1.066,0.107,1.472,0.32c0.405,0.213,0.608,0.533,0.608,0.96v20.8c0,0.405-0.208,0.726-0.624,0.96    c-0.416,0.235-0.901,0.352-1.456,0.352c-0.576,0-1.067-0.117-1.472-0.352C40.198,101.232,39.995,100.912,39.995,100.506z" style="fill:#FFDF15;"/><path d="M49.596,100.506v-20.8c0-0.341,0.144-0.64,0.432-0.896c0.288-0.256,0.667-0.384,1.136-0.384h6.432    c2.197,0,3.957,0.582,5.28,1.744c1.322,1.163,1.984,2.981,1.984,5.456v0.192c0,2.496-0.688,4.331-2.064,5.504    c-1.376,1.174-3.195,1.76-5.456,1.76h-3.584v7.424c0,0.405-0.208,0.726-0.624,0.96c-0.416,0.235-0.901,0.352-1.456,0.352    c-0.576,0-1.067-0.117-1.472-0.352C49.798,101.232,49.596,100.912,49.596,100.506z M53.756,89.818h3.584    c1.066,0,1.893-0.309,2.48-0.928c0.586-0.618,0.88-1.536,0.88-2.752v-0.384c0-1.216-0.293-2.133-0.88-2.752    c-0.587-0.619-1.414-0.928-2.48-0.928h-3.584V89.818z" style="fill:#FFDF15;"/></g><path d="M57.048,39.656h28.223L45.568,0l0.033,28.223C45.609,34.539,50.731,39.656,57.048,39.656z" style="fill:#B8B097;"/><path d="M59.321,37.383c6.417,0.333,25.95,2.273,25.95,2.273L45.568,0c0,0,1.767,19.496,2.306,25.95   C48.4,32.245,53.013,37.057,59.321,37.383z" style="fill:#FFDF15;"/></g><line style="fill:#FDFFEE;" x1="85.271" x2="45.568" y1="39.656" y2="0"/></svg>